<?xml version="1.0" encoding="utf-8"?>
<!-- Generator: Adobe Illustrator 22.0.0, SVG Export Plug-In . SVG Version: 6.00 Build 0)  -->
<svg version="1.1" id="Capa_1" xmlns="http://www.w3.org/2000/svg" xmlns:xlink="http://www.w3.org/1999/xlink" x="0px" y="0px"
	 viewBox="0 0 64 64" style="enable-background:new 0 0 64 64;" xml:space="preserve">
<style type="text/css">
	.st0{fill:#2D2D2D;}
</style>
<g>
	<polygon class="st0" points="59,17.9 59,25.8 39.9,36.9 39.9,40 52.9,32.7 52.9,40 39.9,47.9 39.9,59 33.4,63 33.4,32.5 	"/>
	<polygon class="st0" points="5.9,32.2 5.9,48.5 30.7,63 30.7,32.5 17.6,25 17.6,32.4 23.9,36.2 23.9,51.2 12.1,43.9 12,37.6 	"/>
	<path class="st0" d="M32,0.4L5.8,15.1L32,30.4l6.3-3.7l-5.9-4l12.5-7.2l6.7,3.7l6.3-3.7L32,0.4z M25.2,19l-6.7-3.7l13.1-7.4
		l6.3,3.7L25.2,19z"/>
</g>
</svg>
